<svg width="104" height="108" viewBox="0 0 104 108" fill="none" xmlns="http://www.w3.org/2000/svg">
<rect width="104" height="108" fill="white"/>
<path d="M30.842 19.772C34.491 16.265 34.611 10.469 31.1 6.81401C27.597 3.16801 21.797 3.04701 18.147 6.55601C14.489 10.066 14.375 15.862 17.878 19.514C21.386 23.165 27.188 23.286 30.842 19.772Z" fill="black"/>
<path d="M43.842 27.6221C31.237 21.8421 23.967 23.0951 20.125 25.0861C21.759 24.5801 23.652 24.2991 25.659 24.2991C29.085 24.2991 32.041 25.1171 33.772 26.5451L44.946 36.7521C46.946 38.2701 47.7 40.9421 46.78 43.2871L38.658 60.5001L34.679 58.9371C34.666 59.0601 34.651 59.1851 34.634 59.3081L35.439 74.5881C46.611 92.1311 65.435 100.872 65.435 100.872C65.435 100.872 66.416 87.2601 76.283 84.3581C86.146 81.4541 95.224 76.6291 95.388 63.1231C95.637 42.9771 101.091 37.4681 101.091 37.4681C93.005 40.3041 60.898 35.4391 43.842 27.6221Z" fill="black"/>
<path d="M32.8731 59.3049C32.8941 59.0839 32.9431 58.8709 32.9441 58.6469L32.9621 56.3859L37.7761 58.2719L45.1511 42.6489C45.7941 41.0079 45.2531 39.1419 43.8301 38.1029L32.6601 27.8959C29.4851 25.2769 21.1581 25.5649 18.0101 28.0019L7.54409 37.4049C6.23009 38.3969 5.68309 40.1079 6.18309 41.6769L12.4761 57.6389L17.4561 56.0549L17.4361 58.5279C17.4331 59.0159 17.4861 59.4939 17.5701 59.9579L13.2981 76.6019C13.1911 77.0239 13.1421 77.4609 13.1501 77.9009L13.6931 103.766L23.3841 103.561L22.8541 78.3559L23.9521 74.0849L24.3651 81.8619C24.3691 81.9219 24.3731 81.9789 24.3791 82.0419L26.3591 104L36.0111 103.13L34.0401 81.2559L32.8731 59.3049ZM33.7171 39.7459L36.8431 42.5969L32.9681 55.4719L33.7171 39.7459ZM14.4031 41.9469L16.9821 39.6269L17.4621 55.1859L14.4031 41.9469ZM29.4341 43.9549L25.6301 41.1789L21.8261 43.9549L23.2881 39.4799L19.4741 36.7179L24.1831 36.7289L25.6301 32.2469L27.0751 36.7289L31.7861 36.7179L27.9711 39.4799L29.4341 43.9549Z" fill="black"/>
</svg>
